<svg xmlns="http://www.w3.org/2000/svg" xmlns:xlink="http://www.w3.org/1999/xlink" width="500" zoomAndPan="magnify" viewBox="0 0 375 374.999991" height="500" preserveAspectRatio="xMidYMid meet" version="1.0"><defs><g/><clipPath id="708fb8d31d"><path d="M 187.5 0 C 83.945312 0 0 83.945312 0 187.5 C 0 291.054688 83.945312 375 187.5 375 C 291.054688 375 375 291.054688 375 187.5 C 375 83.945312 291.054688 0 187.5 0 Z M 187.5 0 " clip-rule="nonzero"/></clipPath></defs><g clip-path="url(#708fb8d31d)"><path stroke-linecap="butt" transform="matrix(0.75, 0, 0, 0.75, 0.0000045, 0)" fill="none" stroke-linejoin="miter" d="M 249.999994 0 C 111.927078 0 -0.000006 111.927084 -0.000006 250 C -0.000006 388.072917 111.927078 500.000001 249.999994 500.000001 C 388.072911 500.000001 499.999995 388.072917 499.999995 250 C 499.999995 111.927084 388.072911 0 249.999994 0 Z M 249.999994 0 " stroke="#8c8c8c" stroke-width="80" stroke-opacity="1" stroke-miterlimit="4"/></g><g fill="#8c8c8c" fill-opacity="1"><g transform="translate(113.438143, 313.403874)"><g><path d="M 61.9375 -61.9375 L 61.9375 -31.6875 C 61.9375 -22.800781 59.054688 -15.238281 53.296875 -9 C 47.535156 -2.757812 40.210938 0.359375 31.328125 0.359375 C 22.679688 0.359375 15.238281 -2.757812 9 -9 C 2.757812 -15.238281 -0.359375 -22.800781 -0.359375 -31.6875 L -0.359375 -199.15625 C -0.359375 -209 2.039062 -217.941406 6.84375 -225.984375 C 11.644531 -234.023438 18.125 -240.445312 26.28125 -245.25 C 34.445312 -250.050781 43.332031 -252.453125 52.9375 -252.453125 L 100.828125 -252.453125 C 114.992188 -252.453125 127.359375 -247.53125 137.921875 -237.6875 L 172.5 -203.109375 C 178.257812 -197.828125 182.335938 -190.863281 184.734375 -182.21875 C 187.140625 -173.582031 188.101562 -164.460938 187.625 -154.859375 C 187.144531 -145.253906 185.34375 -136.1875 182.21875 -127.65625 C 179.101562 -119.132812 174.785156 -112.234375 169.265625 -106.953125 L 137.921875 -77.0625 C 127.835938 -66.976562 115.472656 -61.9375 100.828125 -61.9375 Z M 122.4375 -124.96875 L 122.4375 -189.421875 L 62.65625 -190.140625 L 62.65625 -124.96875 Z M 122.4375 -124.96875 "/></g></g></g></svg>