<svg xmlns="http://www.w3.org/2000/svg" xmlns:xlink="http://www.w3.org/1999/xlink" width="500" zoomAndPan="magnify" viewBox="0 0 375 374.999991" height="500" preserveAspectRatio="xMidYMid meet" version="1.0"><defs><clipPath id="861f04eb7c"><path d="M 187.5 0 C 83.945312 0 0 83.945312 0 187.5 C 0 291.054688 83.945312 375 187.5 375 C 291.054688 375 375 291.054688 375 187.5 C 375 83.945312 291.054688 0 187.5 0 Z M 187.5 0 " clip-rule="nonzero"/></clipPath></defs><g clip-path="url(#861f04eb7c)"><path stroke-linecap="butt" transform="matrix(0.75, 0, 0, 0.75, 0.0000045, 0.000000000000127898)" fill="none" stroke-linejoin="miter" d="M 249.999994 -0.00000000000017053 C 111.927078 -0.00000000000017053 -0.000006 111.927084 -0.000006 250 C -0.000006 388.072917 111.927078 500.000001 249.999994 500.000001 C 388.072911 500.000001 499.999995 388.072917 499.999995 250 C 499.999995 111.927084 388.072911 -0.00000000000017053 249.999994 -0.00000000000017053 Z M 249.999994 -0.00000000000017053 " stroke="#8c8c8c" stroke-width="80" stroke-opacity="1" stroke-miterlimit="4"/></g><path stroke-linecap="round" transform="matrix(0.593137, 0.459008, -0.459008, 0.593137, 188.259016, 167.238037)" fill="none" stroke-linejoin="miter" d="M 20.000056 20.000481 L 110.336394 20.00003 " stroke="#8c8c8c" stroke-width="40" stroke-opacity="1" stroke-miterlimit="4"/><path stroke-linecap="round" transform="matrix(0.000000001309, 0.75, -0.75, 0.000000001309, 202.499492, 49.226186)" fill="none" stroke-linejoin="miter" d="M 20.000504 19.999324 L 179.938014 19.999324 " stroke="#8c8c8c" stroke-width="40" stroke-opacity="1" stroke-miterlimit="4"/></svg>