<svg xmlns="http://www.w3.org/2000/svg" xmlns:xlink="http://www.w3.org/1999/xlink" width="500" zoomAndPan="magnify" viewBox="0 0 375 374.999991" height="500" preserveAspectRatio="xMidYMid meet" version="1.0"><path stroke-linecap="round" transform="matrix(0.75, 0, 0, 0.75, 0.0000045, 0.000000000000053291)" fill="none" stroke-linejoin="miter" d="M 19.999995 20.000001 L 480.000026 20.000001 " stroke="#8c8c8c" stroke-width="40" stroke-opacity="1" stroke-miterlimit="4"/><path stroke-linecap="round" transform="matrix(0, -0.75, 0.75, 0, 344.999982, 374.999975)" fill="none" stroke-linejoin="miter" d="M 19.999968 20.000026 L 479.999999 20.000026 " stroke="#8c8c8c" stroke-width="40" stroke-opacity="1" stroke-miterlimit="4"/><path stroke-linecap="round" transform="matrix(0.53033, -0.53033, 0.53033, 0.53033, 99.381941, 254.40259)" fill="none" stroke-linejoin="miter" d="M 19.998918 19.998455 L 479.710426 20.002137 " stroke="#8c8c8c" stroke-width="40" stroke-opacity="1" stroke-miterlimit="4"/><path stroke-linecap="round" transform="matrix(0.361543, 0.657105, -0.657105, 0.361543, 78.83663, -21.530662)" fill="none" stroke-linejoin="miter" d="M 27.72796 58.694639 C 125.157893 7.087044 222.587858 7.102716 320.017853 58.741656 " stroke="#8c8c8c" stroke-width="40" stroke-opacity="1" stroke-miterlimit="4"/><path stroke-linecap="round" transform="matrix(0.610655, 0.435431, -0.435431, 0.610655, 179.630047, 164.663046)" fill="none" stroke-linejoin="miter" d="M 27.55177 59.023784 C 130.004784 6.976294 232.452887 6.989598 334.902124 59.072176 " stroke="#8c8c8c" stroke-width="40" stroke-opacity="1" stroke-miterlimit="4"/><path stroke-linecap="round" transform="matrix(0.645312, 0.382194, -0.382194, 0.645312, 243.812727, 94.084563)" fill="none" stroke-linejoin="miter" d="M 28.754196 55.03026 C 90.054941 8.300435 151.358511 8.324407 212.662251 55.097692 " stroke="#8c8c8c" stroke-width="40" stroke-opacity="1" stroke-miterlimit="4"/><path stroke-linecap="round" transform="matrix(0.387143, 0.642355, -0.642355, 0.387143, 194.105089, -25.010816)" fill="none" stroke-linejoin="miter" d="M 28.818864 54.755174 C 87.683784 8.392717 146.547171 8.41625 205.407253 54.818625 " stroke="#8c8c8c" stroke-width="40" stroke-opacity="1" stroke-miterlimit="4"/></svg>