<svg xmlns="http://www.w3.org/2000/svg" xmlns:xlink="http://www.w3.org/1999/xlink" width="500" zoomAndPan="magnify" viewBox="0 0 375 374.999991" height="500" preserveAspectRatio="xMidYMid meet" version="1.0"><defs><g/><clipPath id="8d13a0f92f"><path d="M 187.5 0 C 83.945312 0 0 83.945312 0 187.5 C 0 291.054688 83.945312 375 187.5 375 C 291.054688 375 375 291.054688 375 187.5 C 375 83.945312 291.054688 0 187.5 0 Z M 187.5 0 " clip-rule="nonzero"/></clipPath></defs><g clip-path="url(#8d13a0f92f)"><path stroke-linecap="butt" transform="matrix(0.75, 0, 0, 0.75, 0.0000045, 0)" fill="none" stroke-linejoin="miter" d="M 249.999994 0 C 111.927078 0 -0.000006 111.927084 -0.000006 250 C -0.000006 388.072917 111.927078 500.000001 249.999994 500.000001 C 388.072911 500.000001 499.999995 388.072917 499.999995 250 C 499.999995 111.927084 388.072911 0 249.999994 0 Z M 249.999994 0 " stroke="#8c8c8c" stroke-width="80" stroke-opacity="1" stroke-miterlimit="4"/></g><g fill="#8c8c8c" fill-opacity="1"><g transform="translate(112.858898, 311.659685)"><g><path d="M 54.734375 0 C 44.890625 0 35.765625 -2.457031 27.359375 -7.375 C 18.960938 -12.300781 12.300781 -18.90625 7.375 -27.1875 C 2.457031 -35.46875 0 -44.53125 0 -54.375 L 0 -222.5625 C 0 -230.957031 3.179688 -238.21875 9.546875 -244.34375 C 15.910156 -250.46875 23.289062 -253.53125 31.6875 -253.53125 C 40.8125 -253.53125 48.429688 -250.46875 54.546875 -244.34375 C 60.671875 -238.21875 63.734375 -230.957031 63.734375 -222.5625 L 63.734375 -62.65625 C 71.660156 -62.65625 77.546875 -62.710938 81.390625 -62.828125 C 85.234375 -62.953125 88.414062 -63.015625 90.9375 -63.015625 C 93.457031 -63.015625 96.578125 -63.070312 100.296875 -63.1875 C 104.015625 -63.3125 109.835938 -63.375 117.765625 -63.375 C 125.921875 -63.375 132.519531 -61.210938 137.5625 -56.890625 C 142.601562 -52.578125 145.960938 -47.296875 147.640625 -41.046875 C 149.328125 -34.804688 149.328125 -28.566406 147.640625 -22.328125 C 145.960938 -16.085938 142.660156 -10.804688 137.734375 -6.484375 C 132.816406 -2.160156 126.160156 0 117.765625 0 Z M 54.734375 0 "/></g></g></g></svg>