<svg xmlns="http://www.w3.org/2000/svg" xmlns:xlink="http://www.w3.org/1999/xlink" width="500" zoomAndPan="magnify" viewBox="0 0 375 374.999991" height="500" preserveAspectRatio="xMidYMid meet" version="1.0"><defs><clipPath id="f40f7a55fc"><path d="M 239 1 L 375 1 L 375 138 L 239 138 Z M 239 1 " clip-rule="nonzero"/></clipPath><clipPath id="9da7ef7963"><path d="M 271.757812 1.859375 L 375.4375 105.535156 L 343.574219 137.398438 L 239.898438 33.71875 Z M 271.757812 1.859375 " clip-rule="nonzero"/></clipPath><clipPath id="966fa67eab"><path d="M 167 39 L 338 39 L 338 210 L 167 210 Z M 167 39 " clip-rule="nonzero"/></clipPath><clipPath id="5d9f5f16d6"><path d="M 300.832031 39.359375 L 337.941406 76.464844 L 204.625 209.78125 L 167.519531 172.671875 Z M 300.832031 39.359375 " clip-rule="nonzero"/></clipPath><clipPath id="a669c2088d"><path d="M 55 127 L 251 127 L 251 323 L 55 323 Z M 55 127 " clip-rule="nonzero"/></clipPath><clipPath id="60102c1050"><path d="M 135.710938 79.5 L 297.992188 241.78125 L 217.382812 322.390625 L 55.101562 160.109375 Z M 135.710938 79.5 " clip-rule="nonzero"/></clipPath><clipPath id="37ab8b34ff"><path d="M 135.710938 79.5 L 297.992188 241.78125 L 217.382812 322.390625 L 55.101562 160.109375 Z M 135.710938 79.5 " clip-rule="nonzero"/></clipPath><clipPath id="67013c31ae"><path d="M 32 75 L 303 75 L 303 345 L 32 345 Z M 32 75 " clip-rule="nonzero"/></clipPath><clipPath id="4470ec269e"><path d="M 270.324219 75.207031 L 302.09375 106.976562 L 64.707031 344.359375 L 32.941406 312.589844 Z M 270.324219 75.207031 " clip-rule="nonzero"/></clipPath><clipPath id="0f3b07c114"><path d="M 2 309 L 68 309 L 68 375 L 2 375 Z M 2 309 " clip-rule="nonzero"/></clipPath><clipPath id="467544533e"><path d="M 18.074219 390.84375 L -13.5625 359.207031 L 36.117188 309.527344 L 67.753906 341.164062 Z M 18.074219 390.84375 " clip-rule="nonzero"/></clipPath><clipPath id="80ad081d41"><path d="M 2.257812 375.027344 L 36.019531 309.625 L 67.65625 341.261719 Z M 2.257812 375.027344 " clip-rule="nonzero"/></clipPath></defs><g clip-path="url(#f40f7a55fc)"><g clip-path="url(#9da7ef7963)"><path fill="#8c8c8c" d="M 271.757812 1.859375 L 375.429688 105.53125 L 343.570312 137.394531 L 239.898438 33.71875 Z M 271.757812 1.859375 " fill-opacity="1" fill-rule="nonzero"/></g></g><g clip-path="url(#966fa67eab)"><g clip-path="url(#5d9f5f16d6)"><path fill="#8c8c8c" d="M 300.832031 39.359375 L 337.941406 76.464844 L 204.585938 209.820312 L 167.476562 172.714844 Z M 300.832031 39.359375 " fill-opacity="1" fill-rule="nonzero"/></g></g><g clip-path="url(#a669c2088d)"><g clip-path="url(#60102c1050)"><g clip-path="url(#37ab8b34ff)"><path fill="#8c8c8c" d="M 216.734375 160.496094 C 239.097656 182.859375 250.199219 212.070312 250.199219 241.359375 C 250.199219 270.648438 239.019531 299.9375 216.734375 322.222656 C 190.515625 296.003906 81.308594 186.796875 55.011719 160.496094 C 77.292969 138.214844 106.585938 127.035156 135.875 127.035156 C 165.164062 127.035156 194.453125 138.214844 216.734375 160.496094 Z M 216.734375 160.496094 " fill-opacity="1" fill-rule="nonzero"/></g></g></g><g clip-path="url(#67013c31ae)"><g clip-path="url(#4470ec269e)"><path fill="#8c8c8c" d="M 270.324219 75.207031 L 302.09375 106.976562 L 64.699219 344.371094 L 32.929688 312.601562 Z M 270.324219 75.207031 " fill-opacity="1" fill-rule="nonzero"/></g></g><g clip-path="url(#0f3b07c114)"><g clip-path="url(#467544533e)"><g clip-path="url(#80ad081d41)"><path fill="#8c8c8c" d="M 18.074219 390.84375 L -13.5625 359.207031 L 35.996094 309.652344 L 67.632812 341.289062 Z M 18.074219 390.84375 " fill-opacity="1" fill-rule="nonzero"/></g></g></g></svg>