<svg xmlns="http://www.w3.org/2000/svg" xmlns:xlink="http://www.w3.org/1999/xlink" width="500" zoomAndPan="magnify" viewBox="0 0 375 374.999991" height="500" preserveAspectRatio="xMidYMid meet" version="1.0"><path stroke-linecap="round" transform="matrix(0.75, 0.000000000000000007, -0.000000000000000007, 0.75, 52.615964, 0)" fill="none" stroke-linejoin="miter" d="M 20.001632 20.000001 L 339.689153 20.000001 " stroke="#8c8c8c" stroke-width="40" stroke-opacity="1" stroke-miterlimit="4"/><path stroke-linecap="round" transform="matrix(0, -0.75, 0.75, 0, 52.615964, 374.999975)" fill="none" stroke-linejoin="miter" d="M 19.999968 20.001632 L 479.999999 20.001632 " stroke="#8c8c8c" stroke-width="40" stroke-opacity="1" stroke-miterlimit="4"/><path stroke-linecap="round" transform="matrix(0, -0.75, 0.75, 0, 292.384029, 374.999975)" fill="none" stroke-linejoin="miter" d="M 19.999968 19.998379 L 479.999999 19.998379 " stroke="#8c8c8c" stroke-width="40" stroke-opacity="1" stroke-miterlimit="4"/><path stroke-linecap="round" transform="matrix(0.75, 0, 0, 0.75, 52.615964, 344.999977)" fill="none" stroke-linejoin="miter" d="M 20.001632 20.000032 L 339.689153 20.000032 " stroke="#8c8c8c" stroke-width="40" stroke-opacity="1" stroke-miterlimit="4"/><path stroke-linecap="round" transform="matrix(0.75, 0, 0, 0.75, 105.811565, 52.488369)" fill="none" stroke-linejoin="miter" d="M 20.001248 19.999885 L 197.834593 19.999885 " stroke="#8c8c8c" stroke-width="40" stroke-opacity="1" stroke-miterlimit="4"/><path stroke-linecap="round" transform="matrix(0.75, 0.000000000000000142, -0.000000000000000142, 0.75, 106.39121, 112.511623)" fill="none" stroke-linejoin="miter" d="M 19.999221 20.000129 L 129.624228 20.000129 " stroke="#8c8c8c" stroke-width="40" stroke-opacity="1" stroke-miterlimit="4"/><path stroke-linecap="round" transform="matrix(0.75, -0.0000641003, 0.0000641003, 0.75, 106.389929, 172.511619)" fill="none" stroke-linejoin="miter" d="M 19.99922 20.001843 L 161.400271 19.998304 " stroke="#8c8c8c" stroke-width="40" stroke-opacity="1" stroke-miterlimit="4"/><path stroke-linecap="round" transform="matrix(0.75, 0, 0, 0.75, 106.39121, 232.511615)" fill="none" stroke-linejoin="miter" d="M 19.999221 20.000139 L 74.592974 20.000139 " stroke="#8c8c8c" stroke-width="40" stroke-opacity="1" stroke-miterlimit="4"/><path stroke-linecap="round" transform="matrix(0.75, 0, 0, 0.75, 106.39121, 292.511611)" fill="none" stroke-linejoin="miter" d="M 19.999221 20.000145 L 114.889852 20.000145 " stroke="#8c8c8c" stroke-width="40" stroke-opacity="1" stroke-miterlimit="4"/></svg>